<svg xmlns="http://www.w3.org/2000/svg" viewBox="0 0 311.96 141.94"><defs><style>.cls-1{fill:#fff;}</style></defs><g id="Слой_2" data-name="Слой 2"><g id="Слой_1-2" data-name="Слой 1"><path class="cls-1" d="M312,55.9l-30.2-1.37-23.13-1L222.8,51.89l-22.65-1-38.7-1.72a2.8,2.8,0,0,1-.44-.08V36.81l6.06.43L191,39.13l28.81,2.3c8.65.68,17.3,1.33,25.94,2l25.82,2.06,23,1.78Q303.24,48,312,48.7Z"/><path class="cls-1" d="M312,93.34c-3.83.27-7.65.52-11.48.81-5.65.43-11.31.9-17,1.35l-26.17,2.08L237.73,99.1l-23.06,1.83-19.61,1.53L172,104.29l-10,.79c-.31,0-.62,0-1,0V92.8l8.17-.4,41.7-1.87c8.1-.36,16.21-.69,24.32-1q20-.9,40-1.83,14.73-.66,29.47-1.28c2.44-.11,4.87-.16,7.31-.23Z"/><path class="cls-1" d="M312,68.38l-151-.85V55.74c2.58,0,5.09-.07,7.6,0,7.51.25,15,.56,22.53.85L234,58.23q10.67.41,21.34.78l42.79,1.62q6.9.25,13.79.55Z"/><path class="cls-1" d="M312,43.42c-4.3-.35-8.61-.69-12.91-1.06-6.05-.51-12.1-1-18.15-1.58l-21.26-1.84c-6.93-.6-13.86-1.17-20.78-1.77q-11.9-1-23.77-2.07l-20.55-1.76-24.12-2.09L161,30.46v-12l5.51.61,21.54,2.55,21.3,2.53,21.19,2.5,21.3,2.51,21.31,2.53,23.68,2.8L312,36.22Z"/><path class="cls-1" d="M312,105.82c-3.33.36-6.67.69-10,1.07-7.14.83-14.28,1.69-21.42,2.53L259.11,112l-21.19,2.5L216.5,117l-21.31,2.51L173.77,122,161,123.53v-12l7-.62,24-2.08L212.59,107l24.13-2.09,20.79-1.77,23.77-2.07c6.93-.59,13.86-1.16,20.79-1.77,3.3-.29,6.59-.63,9.89-1Z"/><path class="cls-1" d="M312,30.94c-3.69-.44-7.38-.87-11.06-1.33l-22-2.75-22-2.76-22-2.76L213,18.6l-24.14-3-23.9-3c-1.07-.13-2.15-.2-3.21-.4-.32-.06-.82-.46-.83-.71,0-3.72,0-7.43,0-11.15,0-.07.08-.14.15-.26l18.78,3,29.58,4.65,29.83,4.69L269.12,17l29.7,4.68c4.38.69,8.76,1.36,13.14,2Z"/><path class="cls-1" d="M312,118.3c-3,.44-6.08.84-9.11,1.32-9.94,1.54-19.88,3.12-29.82,4.68l-31.24,4.92-31.36,4.93-28.17,4.44-20.35,3.21c-.27,0-.55,0-.91,0V129.9l10-1.27,24.13-3,22-2.75,23.9-3q11.82-1.5,23.66-3l24.13-3,21.88-2.74c.43-.06.86-.16,1.29-.24Z"/><path class="cls-1" d="M312,80.86l-23.26.83q-8,.28-16.06.61L230.2,83.9l-22,.8q-21.1.8-42.2,1.59c-1.63.06-3.26,0-5,0V74.4h1.47l66.83-.33,81.11-.45c.52,0,1,0,1.56,0Z"/><path class="cls-1" d="M0,118V23.31L150.63,0V141.94ZM140.09,13.37,7.48,30.06v81.8l132.61,16.72Z"/></g></g></svg>