<?xml version="1.0" encoding="utf-8"?>
<!-- Generator: Adobe Illustrator 25.4.0, SVG Export Plug-In . SVG Version: 6.00 Build 0)  -->
<svg version="1.1" id="Capa_1" xmlns="http://www.w3.org/2000/svg" xmlns:xlink="http://www.w3.org/1999/xlink" x="0px" y="0px"
	 viewBox="0 0 512 512" style="enable-background:new 0 0 512 512;" xml:space="preserve">
<style type="text/css">
	.st0{fill:#FFFFFF;}
</style>
<g>
	<g>
		<path class="st0" d="M-118.2,87.8h-422c-24.8,0-45,20.2-45,45v260.8c0,24.8,20.2,45,45,45h422c24.8,0,45-20.2,45-45V132.8
			C-73.2,108-93.4,87.8-118.2,87.8z M-124,117.8l-6,5l-181.3,150.9c-10.3,8.6-25.4,8.6-35.7,0l-181.3-150.9l-6-5H-124z
			 M-555.2,139.5l147.7,123l-147.7,98.3V139.5z M-118.2,408.6h-422c-7.2,0-13.3-5.2-14.7-12l171.4-114.1l17.2,14.3
			c10.7,8.9,23.9,13.4,37.1,13.4s26.3-4.5,37.1-13.4l17.2-14.3l171.4,114.1C-104.9,403.4-110.9,408.6-118.2,408.6z M-103.2,360.7
			l-147.7-98.3l147.7-123V360.7z"/>
	</g>
</g>
</svg>
